<svg width="99" height="99" xmlns="http://www.w3.org/2000/svg" xml:space="preserve" enable-background="new 0 0 404.5 117.5" version="1.1">
 <g>
  <title>Layer 1</title>
  <path d="m22.13046,11.5749c0,6.23245 -4.88985,11.28505 -10.92086,11.28505c-6.03046,0 -10.91975,-5.0526 -10.91975,-11.28505c0,-6.23131 4.88985,-11.28505 10.91975,-11.28505c6.03101,0 10.92086,5.05374 10.92086,11.28505z" fill="#FFFFFF" id="path39880"/>
  <path d="m22.13046,50.03268c0,6.23245 -4.88985,11.28505 -10.92086,11.28505c-6.03046,0 -10.91975,-5.0526 -10.91975,-11.28505c0,-6.23245 4.88985,-11.28505 10.91975,-11.28505c6.03101,0 10.92086,5.0526 10.92086,11.28505z" fill="#FFFFFF" id="path39882"/>
  <path d="m22.13046,87.5749c0,6.23131 -4.88985,11.28505 -10.92086,11.28505c-6.03046,0 -10.91975,-5.05374 -10.91975,-11.28505c0,-6.23131 4.88985,-11.28505 10.91975,-11.28505c6.03101,0 10.92086,5.05317 10.92086,11.28505z" fill="#FFFFFF" id="path39884"/>
  <path d="m60.23714,50.03268c0,6.23245 -4.88985,11.28505 -10.92086,11.28505c-6.03046,0 -10.91975,-5.0526 -10.91975,-11.28505c0,-6.23245 4.88985,-11.28505 10.91975,-11.28505c6.03101,0 10.92086,5.0526 10.92086,11.28505z" fill="#FFFFFF" id="path39886"/>
  <path d="m60.23714,11.5749c0,6.23245 -4.88985,11.28505 -10.92086,11.28505c-6.03046,0 -10.91975,-5.0526 -10.91975,-11.28505c0,-6.23131 4.88985,-11.28505 10.91975,-11.28505c6.03101,0 10.92086,5.05374 10.92086,11.28505z" fill="#FFFFFF" id="path39888"/>
  <path d="m98.34326,50.03268c0,6.23245 -4.88985,11.28505 -10.92086,11.28505c-6.03046,0 -10.91975,-5.0526 -10.91975,-11.28505c0,-6.23245 4.88985,-11.28505 10.91975,-11.28505c6.03157,0 10.92086,5.0526 10.92086,11.28505z" fill="#FFFFFF" id="path39890"/>
  <path d="m98.34326,11.5749c0,6.23245 -4.88985,11.28505 -10.92086,11.28505c-6.03046,0 -10.91975,-5.0526 -10.91975,-11.28505c0,-6.23131 4.88985,-11.28505 10.91975,-11.28505c6.03157,0 10.92086,5.05374 10.92086,11.28505z" fill="#FFFFFF" id="path39892"/>
  <path d="m98.34326,87.5749c0,6.23131 -4.88985,11.28505 -10.92086,11.28505c-6.03046,0 -10.91975,-5.05374 -10.91975,-11.28505c0,-6.23131 4.88985,-11.28505 10.91975,-11.28505c6.03157,0 10.92086,5.05317 10.92086,11.28505z" fill="#FFFFFF" id="path39894"/>
  <path d="m60.23714,87.5749c0,6.23131 -4.88985,11.28505 -10.92086,11.28505c-6.03046,0 -10.91975,-5.05374 -10.91975,-11.28505c0,-6.23131 4.88985,-11.28505 10.91975,-11.28505c6.03101,0 10.92086,5.05317 10.92086,11.28505z" fill="#FFFFFF" id="path39896"/>
 </g>

</svg>